<?xml version="1.0" encoding="utf-8"?>
<!-- Generator: Adobe Illustrator 20.1.0, SVG Export Plug-In . SVG Version: 6.00 Build 0)  -->
<svg version="1.1" id="Слой_1" xmlns="http://www.w3.org/2000/svg" xmlns:xlink="http://www.w3.org/1999/xlink" x="0px" y="0px"
	 viewBox="0 0 32 32" style="enable-background:new 0 0 32 32;" xml:space="preserve">
<style type="text/css">
	.Red{fill:#D11C1C;}
	.White{fill:#FFFFFF;}
</style>
<path class="Red" d="M26,30H6c-2.2,0-4-1.8-4-4V6c0-2.2,1.8-4,4-4h20c2.2,0,4,1.8,4,4v20C30,28.2,28.2,30,26,30z"/>
<path class="White" d="M20.2,8.9L16,13.2L11.8,9C11,8.2,9.8,8.2,9,9l0,0c-0.8,0.8-0.8,2,0,2.8l4.2,4.2L9,20.2c-0.8,0.8-0.8,2,0,2.8
	l0,0c0.8,0.8,2,0.8,2.8,0l4.2-4.2l4.2,4.2c0.8,0.8,2,0.8,2.8,0l0,0c0.8-0.8,0.8-2,0-2.8L18.8,16l4.2-4.2c0.8-0.8,0.8-2,0-2.8l0,0
	C22.3,8.1,21,8.1,20.2,8.9z"/>
</svg>
